<!--?xml version="1.0" standalone="no"?-->              <svg id="sw-js-blob-svg" viewBox="0 0 100 100" xmlns="http://www.w3.org/2000/svg" version="1.1">                    <defs>                         <linearGradient id="sw-gradient" x1="0" x2="1" y1="1" y2="0">                            <stop id="stop1" stop-color="rgba(97.112, 22.395, 255, 1)" offset="0%"></stop>                            <stop id="stop2" stop-color="rgba(35.129, 38.273, 43.953, 1)" offset="100%"></stop>                        </linearGradient>                    </defs>                <path fill="url(#sw-gradient)" d="M18.6,-28.7C23.3,-29.6,25.7,-22.9,29.4,-16.9C33.1,-10.8,38,-5.4,37.2,-0.5C36.4,4.5,29.8,8.9,23.8,11C17.9,13.1,12.6,12.9,8.7,16.3C4.9,19.8,2.4,27,-0.5,27.8C-3.4,28.7,-6.8,23.2,-13.5,21.3C-20.1,19.5,-30,21.3,-34.9,18.3C-39.7,15.4,-39.5,7.7,-37.4,1.2C-35.4,-5.3,-31.4,-10.6,-28.2,-16.3C-24.9,-22,-22.4,-28.1,-17.8,-27.3C-13.2,-26.5,-6.6,-18.8,0.2,-19.1C7,-19.5,14,-27.9,18.6,-28.7Z" width="100%" height="100%" transform="translate(50 50)" stroke-width="0" style="transition: all 0.3s ease 0s;" stroke="url(#sw-gradient)"></path>              </svg>